<svg width="217" height="181" viewBox="0 0 217 181" fill="none" xmlns="http://www.w3.org/2000/svg">
<path d="M199.777 177.514L196.537 177.514L194.996 165.07H199.778L199.777 177.514Z" fill="#9E616A"/>
<path d="M200.604 180.641L190.157 180.641V180.509C190.157 179.436 190.586 178.406 191.348 177.646C192.111 176.887 193.145 176.461 194.223 176.46H194.223L200.604 176.461L200.604 180.641Z" fill="#2F2E41"/>
<path d="M187.357 177.514L184.117 177.514L182.576 165.07H187.358L187.357 177.514Z" fill="#9E616A"/>
<path d="M188.183 180.641L177.737 180.641V180.509C177.737 179.436 178.166 178.406 178.928 177.646C179.691 176.887 180.725 176.461 181.803 176.46H181.803L188.184 176.461L188.183 180.641Z" fill="#2F2E41"/>
<path d="M47.3899 180.16V80.2107C47.3899 79.5951 47.6354 79.0048 48.0725 78.5695C48.5096 78.1342 49.1025 77.8896 49.7206 77.8896H60.1218C60.74 77.8896 61.3328 78.1342 61.7699 78.5695C62.207 79.0048 62.4526 79.5951 62.4526 80.2107V180.421L47.3899 180.16Z" fill="#3F3D56"/>
<path d="M81.7434 180.474V101C81.7434 100.385 81.9889 99.7943 82.426 99.359C82.8631 98.9237 83.456 98.6792 84.0741 98.6792H94.4753C95.0935 98.6792 95.6863 98.9237 96.1234 99.359C96.5605 99.7943 96.8061 100.385 96.8061 101V180.303L81.7434 180.474Z" fill="#3F3D56"/>
<path d="M20.6996 86.0523C20.5465 86.0523 20.3967 86.0081 20.2682 85.9251C20.1398 85.8421 20.0383 85.7239 19.9759 85.5847C19.9135 85.4454 19.8929 85.2912 19.9166 85.1406C19.9403 84.99 20.0073 84.8494 20.1095 84.7359L54.8873 46.1068L89.1135 65.2461L123.543 6.16797L158.618 34.9166C158.698 34.9825 158.765 35.0635 158.814 35.155C158.863 35.2465 158.893 35.3467 158.903 35.45C158.914 35.5532 158.903 35.6574 158.873 35.7567C158.842 35.8559 158.793 35.9482 158.727 36.0283C158.66 36.1084 158.579 36.1747 158.487 36.2234C158.395 36.2722 158.294 36.3024 158.191 36.3124C158.087 36.3224 157.982 36.3119 157.883 36.2816C157.783 36.2513 157.69 36.2017 157.61 36.1358L123.977 8.56876L89.7002 67.385L55.2193 48.1034L21.2901 85.7898C21.2158 85.8726 21.1248 85.9387 21.023 85.984C20.9213 86.0292 20.811 86.0525 20.6996 86.0523Z" fill="#3F3D56"/>
<path d="M20.5677 92.6313C24.6542 92.6313 27.9669 89.3324 27.9669 85.2629C27.9669 81.1935 24.6542 77.8945 20.5677 77.8945C16.4812 77.8945 13.1685 81.1935 13.1685 85.2629C13.1685 89.3324 16.4812 92.6313 20.5677 92.6313Z" fill="#DE0F11"/>
<path d="M54.9212 54.4736C59.0077 54.4736 62.3204 51.1747 62.3204 47.1052C62.3204 43.0358 59.0077 39.7368 54.9212 39.7368C50.8347 39.7368 47.522 43.0358 47.522 47.1052C47.522 51.1747 50.8347 54.4736 54.9212 54.4736Z" fill="#CCCCCC"/>
<path d="M89.2747 73.6841C93.3612 73.6841 96.6739 70.3851 96.6739 66.3157C96.6739 62.2462 93.3612 58.9473 89.2747 58.9473C85.1882 58.9473 81.8755 62.2462 81.8755 66.3157C81.8755 70.3851 85.1882 73.6841 89.2747 73.6841Z" fill="#E6E6E6"/>
<path d="M123.628 14.7368C127.715 14.7368 131.027 11.4379 131.027 7.3684C131.027 3.29894 127.715 0 123.628 0C119.542 0 116.229 3.29894 116.229 7.3684C116.229 11.4379 119.542 14.7368 123.628 14.7368Z" fill="#DE0F11"/>
<path d="M189.693 69.6142C193.779 69.6142 197.092 66.3153 197.092 62.2458C197.092 58.1764 193.779 54.8774 189.693 54.8774C185.606 54.8774 182.293 58.1764 182.293 62.2458C182.293 66.3153 185.606 69.6142 189.693 69.6142Z" fill="#DE0F11"/>
<path d="M187.076 119.646C189.846 119.978 196.928 117.462 197.312 121.29C200.957 131.975 200.849 172.936 200.849 172.936L195.299 173.199C195.299 173.199 190.865 140.653 188.768 133.691C187.716 142.153 187.9 174.515 187.9 174.515L182.879 174.778C182.879 174.778 178.375 147.221 178.35 139.133C177.802 133.208 179.145 124.428 178.57 118.701C181.316 119.568 184.206 119.889 187.077 119.646L187.076 119.646Z" fill="#3F3D56"/>
<path d="M150.45 180.119V64.9213C150.45 63.444 151.494 62.2461 152.781 62.2461H163.182C164.47 62.2461 165.513 63.4437 165.513 64.9213V180.421L150.45 180.119Z" fill="#3F3D56"/>
<path d="M177.656 88.6463C176.545 86.385 175.188 84.2521 173.61 82.2858C173.28 81.9017 172.98 81.4936 172.711 81.0647C172.143 80.0831 171.974 78.9305 171.615 77.8568C170.611 74.8463 168.105 72.4279 167.495 69.3147C167.273 68.1832 165.398 71.4721 165.891 72.8753C166.771 75.4147 166.885 78.1042 168.005 80.5568C169.125 83.0094 170.441 85.3621 171.409 87.87C171.958 89.2936 172.397 90.7647 173.203 92.0805C174.009 93.3963 175.267 94.4989 176.786 94.6963C176.776 93.7424 176.922 92.7931 177.217 91.8857C177.547 90.8489 178.134 89.6278 177.656 88.6463Z" fill="#9E616A"/>
<path d="M194.28 90.3513C194.212 88.4906 194.504 86.6342 195.139 84.8829C195.382 84.2119 195.668 83.5303 195.644 82.8171C195.609 82.154 195.292 81.5461 195.004 80.9461C194.011 78.8803 193.313 76.6908 192.626 74.5066L191.305 70.3882C190.874 70.0736 193.39 69.9645 193.926 70.704C195.681 73.1303 197.01 75.9172 198.4 78.5672C198.755 79.1986 199.057 79.8578 199.304 80.5382C199.643 81.6408 199.804 82.7904 199.779 83.9435C199.779 86.0987 199.494 88.2461 199.198 90.3829C199.01 91.7224 198.765 93.1803 197.747 94.0671C196.69 92.7197 195.628 91.404 194.28 90.3513Z" fill="#9E616A"/>
<path d="M187.293 88.2194C190.322 88.2194 192.777 85.7746 192.777 82.7589C192.777 79.7431 190.322 77.2983 187.293 77.2983C184.265 77.2983 181.81 79.7431 181.81 82.7589C181.81 85.7746 184.265 88.2194 187.293 88.2194Z" fill="#9E616A"/>
<path d="M182.836 77.3106C182.774 77.1449 182.76 76.9653 182.796 76.7922C182.831 76.6191 182.915 76.4593 183.036 76.3308C183.173 76.2233 183.355 76.1833 183.502 76.0807C183.711 75.906 183.881 75.6909 184.004 75.4483C184.378 74.9263 184.927 74.5533 185.551 74.3955C186.176 74.2376 186.836 74.3051 187.415 74.586C188.321 75.0584 188.868 76.0041 189.674 76.6409C190.084 76.9708 190.558 77.2157 190.97 77.5457C191.794 78.2549 192.38 79.199 192.649 80.2504C192.916 81.2947 193.072 82.3642 193.114 83.4411C193.157 83.7642 193.145 84.0922 193.077 84.4111C192.994 84.6785 192.869 84.9315 192.708 85.161C191.88 86.4108 190.788 87.5458 189.42 88.1908C188.052 88.8357 186.387 88.9407 185.038 88.2658C184.902 88.2111 184.785 88.1181 184.702 87.9983C184.625 87.8158 184.607 87.6142 184.649 87.4209C184.722 86.657 184.571 85.8883 184.213 85.2087C183.961 84.7089 183.585 84.2788 183.384 83.7615C183.197 83.1823 183.117 82.5743 183.148 81.9668C183.124 80.3927 183.232 78.8255 182.836 77.3106Z" fill="#2D293D"/>
<path d="M13.0361 180.276V124.66C13.0361 123.947 14.0797 123.368 15.3669 123.368H25.768C27.0552 123.368 28.0988 123.947 28.0988 124.66V180.421L13.0361 180.276Z" fill="#3F3D56"/>
<path d="M216.736 181H0.264258C0.194172 181 0.126957 180.972 0.0773991 180.923C0.0278412 180.874 0 180.807 0 180.737C0 180.667 0.0278412 180.6 0.0773991 180.551C0.126957 180.501 0.194172 180.474 0.264258 180.474H216.736C216.806 180.474 216.873 180.501 216.923 180.551C216.972 180.6 217 180.667 217 180.737C217 180.807 216.972 180.874 216.923 180.923C216.873 180.972 216.806 181 216.736 181H216.736Z" fill="#E6E6E6"/>
<path d="M116.097 180.08V49.3512C116.097 47.6746 117.14 46.3154 118.427 46.3154H128.829C130.116 46.3154 131.159 47.6746 131.159 49.3512V180.421L116.097 180.08Z" fill="#DE0F11"/>
<path d="M165.738 72.2012C167.051 72.2012 168.116 71.1408 168.116 69.8328C168.116 68.5247 167.051 67.4644 165.738 67.4644C164.424 67.4644 163.359 68.5247 163.359 69.8328C163.359 71.1408 164.424 72.2012 165.738 72.2012Z" fill="#A0616A"/>
<path d="M192.164 71.1484C193.477 71.1484 194.542 70.0881 194.542 68.78C194.542 67.472 193.477 66.4116 192.164 66.4116C190.85 66.4116 189.785 67.472 189.785 68.78C189.785 70.0881 190.85 71.1484 192.164 71.1484Z" fill="#A0616A"/>
<path d="M197.943 98.0985C198.175 97.8871 200.067 86.8686 200.056 86.6203C200.027 85.2628 195.867 83.7124 195.035 84.2519C194.25 84.7609 192.882 90.6004 192.002 91.6638L191.071 90.0414H183.672L183.223 90.8708C182.252 90.2883 181.379 89.7513 181.068 89.5736C180.961 89.5014 180.844 89.4442 180.721 89.4039C179.952 89.2326 179.23 88.8948 178.607 88.4144C177.999 87.9486 175.179 83.0703 174.423 83.1993C173.569 83.3414 170.69 85.8203 170.723 88.1993C171.086 88.1916 175.801 97.5802 175.867 97.9301C176.229 99.4091 177.424 120.977 177.81 121.983C179.587 121.812 178.184 121.506 179.905 121.983C181.757 122.496 183.713 121.941 185.623 121.735C186.419 121.657 187.218 121.622 188.017 121.63C190.924 121.643 195.073 121.804 197.887 122.522C197.903 120.685 196.283 116.712 195.683 114.977C195.605 114.459 195.607 113.932 195.691 113.414C195.768 112.78 197.315 98.7998 197.943 98.0985Z" fill="#E6E6E6"/>
</svg>
